<svg width="512" height="512" fill="none" xmlns="http://www.w3.org/2000/svg"><path fill="#fff" d="M0 0h512v512H0z"/><path fill-rule="evenodd" clip-rule="evenodd" d="M281.732 218.168h-51.48c-7.402.036-14.602 2.738-20.562 7.716-5.96 4.977-10.371 11.974-12.599 19.979l-21.779 82.212c-1.68 6.422-1.748 13.248-.195 19.712 1.553 6.463 4.665 12.307 8.985 16.874l47.478 66.458c6.633 6.981 15.345 10.864 24.394 10.874 9.049.011 17.767-3.853 24.413-10.818l47.478-66.328c4.315-4.519 7.426-10.321 8.98-16.745 1.554-6.425 1.488-13.215-.19-19.599l-21.779-82.64c-2.223-8.008-6.634-15.008-12.595-19.986-5.961-4.979-13.163-7.679-20.566-7.709h.017zm30.815-67.184l5.74-37.441C321.797 90.9622 305.577 70 284.257 70h-56.531c-21.32 0-37.556 21.39-34.046 43.952l5.74 36.642c2.788 17.856 17.171 30.541 34.046 30.541h45.035c16.875 0 31.258-12.276 34.03-30.132" fill="#605BC0"/></svg>