<svg width="32" height="32" fill="none" xmlns="http://www.w3.org/2000/svg"><path fill-rule="evenodd" clip-rule="evenodd" d="M16 0c8.83 0 16 7.17 16 16s-7.17 16-16 16S0 24.83 0 16 7.17 0 16 0zm0 6c-2.716 0-3.056.011-4.123.06-1.064.049-1.791.218-2.427.465a4.902 4.902 0 00-1.772 1.153A4.902 4.902 0 006.525 9.45c-.247.636-.416 1.363-.465 2.427C6.012 12.944 6 13.284 6 16s.011 3.056.06 4.123c.049 1.064.218 1.791.465 2.427a4.903 4.903 0 001.153 1.772 4.902 4.902 0 001.772 1.153c.636.247 1.363.416 2.427.465 1.067.048 1.407.06 4.123.06s3.056-.012 4.123-.06c1.064-.049 1.791-.218 2.427-.465a4.903 4.903 0 001.772-1.153 4.903 4.903 0 001.153-1.772c.247-.636.416-1.363.465-2.427.048-1.067.06-1.407.06-4.123s-.012-3.056-.06-4.123c-.049-1.064-.218-1.791-.465-2.427a4.902 4.902 0 00-1.153-1.772 4.903 4.903 0 00-1.772-1.153c-.636-.247-1.363-.416-2.427-.465C19.056 6.012 18.716 6 16 6zm0 1.802c2.67 0 2.986.01 4.04.058.976.045 1.505.208 1.858.344.466.182.8.399 1.15.748.35.35.566.684.748 1.15.137.353.3.882.344 1.857.048 1.055.058 1.37.058 4.041 0 2.67-.01 2.986-.058 4.04-.045.976-.207 1.505-.344 1.858-.182.466-.398.8-.748 1.15-.35.35-.683.566-1.15.748-.353.137-.882.3-1.857.344-1.054.048-1.37.058-4.041.058-2.67 0-2.986-.01-4.04-.058-.976-.045-1.505-.207-1.858-.344a3.097 3.097 0 01-1.15-.748 3.097 3.097 0 01-.748-1.15c-.136-.353-.3-.882-.344-1.857-.048-1.055-.058-1.37-.058-4.041 0-2.67.01-2.986.058-4.04.045-.976.208-1.505.344-1.858.182-.466.398-.8.748-1.15.35-.35.684-.566 1.15-.748.353-.136.882-.3 1.857-.344 1.055-.048 1.37-.058 4.041-.058zm0 3.063a5.135 5.135 0 100 10.27 5.135 5.135 0 000-10.27zm0 8.468a3.333 3.333 0 110-6.666 3.333 3.333 0 010 6.666zm6.538-8.671a1.2 1.2 0 11-2.4 0 1.2 1.2 0 012.4 0z" fill="#000"/></svg>